<svg xmlns="http://www.w3.org/2000/svg" width="16.04" height="16" viewBox="0 0 16.04 16">
  <path id="shopping_x5F_cart_2_" d="M14.421,16H1.621a1.63,1.63,0,0,1-1.242-.586A1.549,1.549,0,0,1,.021,14.16l1.12-8A1.9,1.9,0,0,1,2.981,4.8H4.02V4a3.957,3.957,0,0,1,4-4,3.868,3.868,0,0,1,4,4v.8H13.3a1.562,1.562,0,0,1,1.6,1.36l1.121,8a1.551,1.551,0,0,1-.359,1.255A1.63,1.63,0,0,1,14.421,16ZM3.461,6.4a.854.854,0,0,0-.8.72l-.88,6.4a.718.718,0,0,0,.164.591.83.83,0,0,0,.636.289H13.46a.826.826,0,0,0,.647-.268.74.74,0,0,0,.153-.612l-.88-6.4a.854.854,0,0,0-.8-.72h-.56V8a.8.8,0,1,1-1.6,0V6.4h-4.8V8a.757.757,0,0,1-.8.8.757.757,0,0,1-.8-.8V6.4Zm4.56-4.8A2.347,2.347,0,0,0,5.621,4v.8h4.8V4A2.226,2.226,0,0,0,8.021,1.6Z" transform="translate(-0.001)" fill="#db9351"/>
</svg>
